:SAMPLES-PER-SECOND 30
:FRAME-RANGE 1-4244
:FULLY-SPECIFIED
:DEGREES
664
root  17.5187 36.5161 -35.5282 10 -29.7888 -2.01288
RightUpLeg  -24.2138 -7.60487 -21.491
RightLeg  19.4644 -5.53538 -2.38116
RightFoot  0.587175 -2.28342 21.6545
RightToes  -1.33073e-015 0 -3.6325e-017
Spine  12.811 -2.99081 1.49208
Spine1  0.39045 -3.59316 3.14476
HEad  -8.97712 -13.8852 8.11643
LeftShoulder1  1.99329 -5.14314 -17.185
LeftArm  15.2113 -7.56864 -65.638
LeftForeArm  51.5392 -69.4377 -24.5182
LeftHand  -0.214548 3.31325 11.4579
RightShoulder  1.48371 1.93669 22.0441
RightArm  -7.66838 14.8602 42.9243
RightForeArm  151.241 80.4236 116.969
RightHand  0.423835 -8.58541 -16.1191
LeftUpLeg  -27.8954 9.5929 17.2146
LeftLeg  40.4192 6.39264 6.18569
LeftFoot  -12.9032 -0.177504 -18.5173
LeftToes  2.72522e-012 8.43823e-011 6.24977e-012
665
root  18.2434 36.5519 -35.034 9.89261 -28.182 -1.99518
RightUpLeg  -21.431 -4.01319 -23.1363
RightLeg  17.1019 -9.49559 -3.92636
RightFoot  -3.57663 -1.39314 19.9767
RightToes  -1.33073e-015 0 -3.6325e-017
Spine  12.4202 -2.44286 -0.632821
Spine1  0.431045 -3.09807 2.5054
HEad  -8.54133 -17.7444 12.2964
LeftShoulder1  1.9337 -4.94936 -17.0019
LeftArm  16.5028 -6.60279 -63.9833
LeftForeArm  51.8437 -69.8832 -25.2111
LeftHand  -0.213294 3.30864 11.3601
RightShoulder  1.54725 2.01936 22.8522
RightArm  -8.11202 11.4944 42.8234
RightForeArm  156.271 79.9901 121.737
RightHand  0.424367 -8.59092 -16.1115
LeftUpLeg  -28.865 10.9528 15.589
LeftLeg  41.3867 4.25046 4.39496
LeftFoot  -14.293 -0.342345 -16.4962
LeftToes  2.72522e-012 8.43823e-011 6.24977e-012
666
root  18.919 36.6685 -34.5301 9.86444 -25.8701 -2.72369
RightUpLeg  -18.4995 -2.30084 -22.8966
RightLeg  15.3148 -10.9895 -4.95794
RightFoot  -8.90078 -0.394477 15.573
RightToes  -1.33073e-015 0 -3.6325e-017
Spine  12.2091 -2.56526 -1.13926
Spine1  0.510385 -3.05035 1.34358
HEad  -6.92137 -21.6741 14.4945
LeftShoulder1  1.83665 -4.51126 -17.0785
LeftArm  17.5746 -5.56785 -61.2372
LeftForeArm  50.6987 -69.7952 -25.2491
LeftHand  -0.20812 3.32822 11.1655
RightShoulder  1.56489 1.99682 23.3368
RightArm  -7.16919 9.11695 44.1909
RightForeArm  154.506 80.2785 119.178
RightHand  0.400493 -8.47897 -15.8146
LeftUpLeg  -29.5154 11.126 14.8236
LeftLeg  42.0878 2.63507 2.94494
LeftFoot  -15.2408 -0.408874 -14.6147
LeftToes  2.72522e-012 8.43823e-011 6.24977e-012
667
root  19.463 36.8616 -34.085 10.3922 -23.7609 -3.81805
RightUpLeg  -17.237 -1.89107 -21.9276
RightLeg  14.958 -8.19412 -4.08191
RightFoot  -13.3134 0.0667213 9.11973
RightToes  -1.33073e-015 0 -3.6325e-017
Spine  11.5801 -2.48078 -1.65958
Spine1  0.597397 -2.95709 1.09608
HEad  -4.69724 -25.9096 14.7057
LeftShoulder1  1.78334 -4.22899 -17.2654
LeftArm  17.7968 -4.15224 -58.5132
LeftForeArm  49.6929 -69.1018 -24.2727
LeftHand  -0.203268 3.34973 10.9962
RightShoulder  1.56969 2.00267 23.3984
RightArm  -5.96816 7.91162 46.4636
RightForeArm  144.667 81.1693 107.345
RightHand  0.31265 -7.89285 -15.4312
LeftUpLeg  -30.0422 10.385 14.6926
LeftLeg  42.0362 1.9663 2.29633
LeftFoot  -15.6455 -0.40269 -13.1537
LeftToes  2.72522e-012 8.43823e-011 6.24977e-012
668
root  19.8291 37.0997 -33.7226 10.7949 -21.8834 -4.45258
RightUpLeg  -16.87 0.0985581 -21.3723
RightLeg  16.394 -5.60963 -2.41646
RightFoot  -15.5967 0.23301 9.10794
RightToes  -1.33073e-015 0 -3.6325e-017
Spine  11.043 -2.31512 -3.06416
Spine1  0.613603 -2.81684 0.785661
HEad  -2.97471 -29.7346 14.4665
LeftShoulder1  1.73446 -4.04766 -17.1768
LeftArm  17.4771 -2.30942 -55.6975
LeftForeArm  49.1135 -68.8241 -23.9309
LeftHand  -0.188597 3.49756 10.9172
RightShoulder  1.59027 1.99904 23.8315
RightArm  -3.8148 7.33513 47.9258
RightForeArm  135.799 81.5887 96.4176
RightHand  0.287962 -7.75426 -15.1359
LeftUpLeg  -30.0988 8.77671 14.5466
LeftLeg  41.1279 2.09125 2.3511
LeftFoot  -15.5558 -0.360838 -12.2933
LeftToes  2.72522e-012 8.43823e-011 6.24977e-012
669
root  20.0974 37.4204 -33.4011 11.3859 -20.2181 -5.37982
RightUpLeg  -17.1045 0.325229 -19.1398
RightLeg  18.7178 -1.72427 -0.859673
RightFoot  -16.1936 0.340013 10.5974
RightToes  -1.33073e-015 0 -3.6325e-017
Spine  10.4097 -2.19449 -3.90895
Spine1  0.899387 -2.63828 0.323395
HEad  -2.23249 -32.7128 14.6648
LeftShoulder1  1.62807 -3.69491 -16.8156
LeftArm  16.5431 -0.55132 -53.4227
LeftForeArm  47.7006 -68.6115 -23.8258
LeftHand  -0.187942 3.525 11.0356
RightShoulder  1.64061 2.1261 24.0753
RightArm  -1.01856 7.23497 49.3652
RightForeArm  122.269 81.5734 82.8966
RightHand  0.27243 -7.58173 -15.4583
LeftUpLeg  -29.7675 7.54129 14.8914
LeftLeg  39.4506 2.13605 2.27254
LeftFoot  -15.0367 -0.281587 -11.4825
LeftToes  2.72522e-012 8.43823e-011 6.24977e-012
670
root  20.3028 37.786 -33.0995 12.0009 -18.6151 -6.20294
RightUpLeg  -17.4418 0.463921 -16.2347
RightLeg  21.0223 -1.0627 -0.662315
RightFoot  -16.5252 0.431662 11.981
RightToes  -1.33073e-015 0 -3.6325e-017
Spine  9.81797 -2.08275 -4.52081
Spine1  1.11671 -2.44355 -0.127742
HEad  -1.85867 -35.1298 14.9828
LeftShoulder1  1.55386 -3.40342 -16.7104
LeftArm  15.3255 0.946861 -51.1467
LeftForeArm  47.7808 -68.71 -23.9631
LeftHand  -0.17931 3.61188 10.9876
RightShoulder  1.69885 2.33123 24.0129
RightArm  1.7063 7.02246 50.7305
RightForeArm  110.745 81.18 71.328
RightHand  0.23934 -7.36609 -15.2008
LeftUpLeg  -29.1505 6.447 15.279
LeftLeg  37.1094 2.09763 2.08321
LeftFoot  -14.3717 -0.207756 -11.0732
LeftToes  2.72522e-012 8.43823e-011 6.24977e-012
